<svg width="21" height="21" viewBox="0 0 21 21" fill="none" xmlns="http://www.w3.org/2000/svg">
<path d="M10.3146 10.7116L10.2781 10.6752L10.2381 10.6426L10.1875 10.6015V6.3025H10.8125V10.0538V10.468L11.1054 10.7609L11.9979 11.6534L12.0175 11.673L12.0382 11.6915L12.2479 11.8791L11.8529 12.2742L11.6652 12.0645L11.6467 12.0438L11.6271 12.0241L10.3146 10.7116ZM1 10.5C1 5.27728 5.27728 1 10.5 1C15.7227 1 20 5.27728 20 10.5C20 15.7227 15.7227 20 10.5 20C5.27728 20 1 15.7227 1 10.5ZM19.375 10.5C19.375 5.59022 15.4098 1.625 10.5 1.625C5.59022 1.625 1.625 5.59022 1.625 10.5C1.625 15.4098 5.59022 19.375 10.5 19.375C15.4098 19.375 19.375 15.4098 19.375 10.5Z" fill="#FDC330" stroke="#FDC330" stroke-width="2"/>
</svg>
