<svg width="29" height="33" viewBox="0 0 29 33" fill="none" xmlns="http://www.w3.org/2000/svg">
<path d="M2.125 8.25H4.875M4.875 8.25H26.875M4.875 8.25V27.5C4.875 28.2293 5.16473 28.9288 5.68046 29.4445C6.19618 29.9603 6.89565 30.25 7.625 30.25H21.375C22.1043 30.25 22.8038 29.9603 23.3195 29.4445C23.8353 28.9288 24.125 28.2293 24.125 27.5V8.25M9 8.25V5.5C9 4.77065 9.28973 4.07118 9.80546 3.55546C10.3212 3.03973 11.0207 2.75 11.75 2.75H17.25C17.9793 2.75 18.6788 3.03973 19.1945 3.55546C19.7103 4.07118 20 4.77065 20 5.5V8.25M11.75 15.125V23.375M17.25 15.125V23.375" stroke="white" stroke-width="4" stroke-linecap="round" stroke-linejoin="round"/>
</svg>
