<svg width="38" height="39" viewBox="0 0 38 39" fill="none" xmlns="http://www.w3.org/2000/svg">
<g filter="url(#filter0_d_648_2715)">
<path d="M26.1697 5.43672C26.4745 5.13207 26.8877 4.96094 27.3186 4.96094C27.7495 4.96094 28.1627 5.13207 28.4675 5.43672L33.3425 10.3117C33.6471 10.6164 33.8183 11.0297 33.8183 11.4606C33.8183 11.8915 33.6471 12.3047 33.3425 12.6095L18.7175 27.2345C18.4128 27.5392 17.9995 27.7105 17.5686 27.7106H12.6936C12.2626 27.7106 11.8493 27.5394 11.5446 27.2346C11.2398 26.9299 11.0686 26.5166 11.0686 26.0856V21.2106C11.0687 20.7796 11.24 20.3664 11.5447 20.0617L26.1697 5.43672ZM14.3186 21.8833V24.4606H16.8959L29.8959 11.4606L27.3186 8.88334L14.3186 21.8833ZM4.5686 11.4606C4.5686 10.5986 4.91101 9.77199 5.52051 9.16249C6.13 8.553 6.95665 8.21059 7.8186 8.21059H15.9436C16.3746 8.21059 16.7879 8.3818 17.0927 8.68654C17.3974 8.99129 17.5686 9.40461 17.5686 9.83559C17.5686 10.2666 17.3974 10.6799 17.0927 10.9846C16.7879 11.2894 16.3746 11.4606 15.9436 11.4606H7.8186V30.9606H27.3186V22.8356C27.3186 22.4046 27.4898 21.9913 27.7946 21.6865C28.0993 21.3818 28.5126 21.2106 28.9436 21.2106C29.3746 21.2106 29.7879 21.3818 30.0927 21.6865C30.3974 21.9913 30.5686 22.4046 30.5686 22.8356V30.9606C30.5686 31.8225 30.2262 32.6492 29.6167 33.2587C29.0072 33.8682 28.1806 34.2106 27.3186 34.2106H7.8186C6.95665 34.2106 6.13 33.8682 5.52051 33.2587C4.91101 32.6492 4.5686 31.8225 4.5686 30.9606V11.4606Z" fill="white"/>
</g>
<defs>
<filter id="filter0_d_648_2715" x="0.568604" y="0.960938" width="37.2496" height="37.2498" filterUnits="userSpaceOnUse" color-interpolation-filters="sRGB">
<feFlood flood-opacity="0" result="BackgroundImageFix"/>
<feColorMatrix in="SourceAlpha" type="matrix" values="0 0 0 0 0 0 0 0 0 0 0 0 0 0 0 0 0 0 127 0" result="hardAlpha"/>
<feOffset/>
<feGaussianBlur stdDeviation="2"/>
<feComposite in2="hardAlpha" operator="out"/>
<feColorMatrix type="matrix" values="0 0 0 0 0 0 0 0 0 0 0 0 0 0 0 0 0 0 0.15 0"/>
<feBlend mode="normal" in2="BackgroundImageFix" result="effect1_dropShadow_648_2715"/>
<feBlend mode="normal" in="SourceGraphic" in2="effect1_dropShadow_648_2715" result="shape"/>
</filter>
</defs>
</svg>
