<svg width="19" height="18" viewBox="0 0 19 18" fill="none" xmlns="http://www.w3.org/2000/svg">
<path d="M14.293 0.292786C14.4805 0.105315 14.7348 0 15 0C15.2652 0 15.5195 0.105315 15.707 0.292786L18.707 3.29279C18.8945 3.48031 18.9998 3.73462 18.9998 3.99979C18.9998 4.26495 18.8945 4.51926 18.707 4.70679L9.707 13.7068C9.51951 13.8943 9.26519 13.9997 9 13.9998H6C5.73478 13.9998 5.48043 13.8944 5.29289 13.7069C5.10536 13.5194 5 13.265 5 12.9998V9.99979C5.00006 9.73459 5.10545 9.48028 5.293 9.29279L14.293 0.292786ZM7 10.4138V11.9998H8.586L16.586 3.99979L15 2.41379L7 10.4138ZM1 3.99979C1 3.46935 1.21071 2.96065 1.58579 2.58557C1.96086 2.2105 2.46957 1.99979 3 1.99979H8C8.26522 1.99979 8.51957 2.10514 8.70711 2.29268C8.89464 2.48022 9 2.73457 9 2.99979C9 3.265 8.89464 3.51936 8.70711 3.70689C8.51957 3.89443 8.26522 3.99979 8 3.99979H3V15.9998H15V10.9998C15 10.7346 15.1054 10.4802 15.2929 10.2927C15.4804 10.1051 15.7348 9.99979 16 9.99979C16.2652 9.99979 16.5196 10.1051 16.7071 10.2927C16.8946 10.4802 17 10.7346 17 10.9998V15.9998C17 16.5302 16.7893 17.0389 16.4142 17.414C16.0391 17.7891 15.5304 17.9998 15 17.9998H3C2.46957 17.9998 1.96086 17.7891 1.58579 17.414C1.21071 17.0389 1 16.5302 1 15.9998V3.99979Z" fill="#5FA2FF"/>
</svg>
