<svg width="26" height="25" viewBox="0 0 26 25" fill="none" xmlns="http://www.w3.org/2000/svg">
<path d="M3.20589 24.2857C2.51839 24.2857 1.92985 23.9885 1.44026 23.394C0.950679 22.7995 0.705887 22.0848 0.705887 21.25V3.03571C0.705887 2.20089 0.950679 1.48624 1.44026 0.891741C1.92985 0.297247 2.51839 0 3.20589 0H23.2059C23.8934 0 24.4819 0.297247 24.9715 0.891741C25.4611 1.48624 25.7059 2.20089 25.7059 3.03571V21.25C25.7059 22.0848 25.4611 22.7995 24.9715 23.394C24.4819 23.9885 23.8934 24.2857 23.2059 24.2857H3.20589ZM13.2059 13.6607L3.20589 6.07143V21.25H23.2059V6.07143L13.2059 13.6607ZM13.2059 10.625L23.2059 3.03571H3.20589L13.2059 10.625ZM3.20589 6.07143V3.03571V21.25V6.07143Z" fill="white"/>
</svg>
