<svg width="24" height="19" viewBox="0 0 24 19" fill="none" xmlns="http://www.w3.org/2000/svg">
<path d="M3.49602 5.49885C3.49622 4.55077 3.74149 3.61883 4.20804 2.79348C4.67459 1.96814 5.34656 1.2774 6.15876 0.788319C6.97096 0.299234 7.89579 0.0284054 8.84351 0.00211538C9.79123 -0.0241747 10.7297 0.194966 11.5677 0.638273C12.4058 1.08158 13.115 1.734 13.6266 2.53221C14.1382 3.33043 14.4347 4.24733 14.4875 5.19395C14.5403 6.14056 14.3474 7.08474 13.9277 7.93486C13.508 8.78498 12.8756 9.51217 12.092 10.0459C13.7795 10.6648 15.2432 11.7746 16.2947 13.2324C17.3461 14.6902 17.9373 16.4293 17.992 18.2259C17.9897 18.4196 17.9126 18.6049 17.7769 18.7431C17.6411 18.8813 17.4572 18.9617 17.2636 18.9675C17.07 18.9733 16.8816 18.9041 16.7378 18.7742C16.594 18.6444 16.506 18.4641 16.492 18.2709C16.4325 16.3223 15.6166 14.4735 14.2172 13.1163C12.8178 11.759 10.945 11 8.99552 11C7.04607 11 5.17322 11.759 3.77385 13.1163C2.37448 14.4735 1.55857 16.3223 1.49902 18.2709C1.48901 18.4667 1.4027 18.6508 1.25858 18.7838C1.11446 18.9168 0.924 18.988 0.727995 18.9822C0.53199 18.9765 0.346033 18.8942 0.209963 18.753C0.0738921 18.6118 -0.0014699 18.4229 2.17278e-05 18.2269C0.0545731 16.4301 0.645629 14.6908 1.69711 13.2328C2.74859 11.7748 4.21236 10.6649 5.90002 10.0459C5.1591 9.54124 4.55275 8.86317 4.13376 8.07068C3.71477 7.27819 3.49583 6.39529 3.49602 5.49885ZM8.99602 1.49885C7.93516 1.49885 6.91774 1.92028 6.16759 2.67043C5.41745 3.42057 4.99602 4.43799 4.99602 5.49885C4.99602 6.55972 5.41745 7.57714 6.16759 8.32728C6.91774 9.07743 7.93516 9.49885 8.99602 9.49885C10.0569 9.49885 11.0743 9.07743 11.8244 8.32728C12.5746 7.57714 12.996 6.55972 12.996 5.49885C12.996 4.43799 12.5746 3.42057 11.8244 2.67043C11.0743 1.92028 10.0569 1.49885 8.99602 1.49885ZM17.286 5.49885C17.1387 5.49885 16.994 5.50885 16.852 5.52885C16.7529 5.54661 16.6512 5.54421 16.553 5.5218C16.4548 5.49939 16.3621 5.45744 16.2805 5.39844C16.1989 5.33944 16.1299 5.2646 16.0779 5.17839C16.0258 5.09218 15.9916 4.99637 15.9774 4.89666C15.9631 4.79696 15.9691 4.6954 15.995 4.59806C16.0208 4.50072 16.066 4.40958 16.1279 4.33008C16.1897 4.25058 16.2669 4.18436 16.3549 4.13535C16.4429 4.08635 16.5399 4.05557 16.64 4.04485C17.6346 3.90106 18.6488 4.09205 19.5229 4.58778C20.397 5.0835 21.0815 5.85582 21.4686 6.78318C21.8557 7.71054 21.9235 8.7403 21.6613 9.71039C21.399 10.6805 20.8217 11.5358 20.02 12.1419C21.1984 12.6695 22.1989 13.5269 22.9009 14.6105C23.6029 15.6941 23.9762 16.9577 23.976 18.2489C23.976 18.4478 23.897 18.6385 23.7564 18.7792C23.6157 18.9198 23.4249 18.9989 23.226 18.9989C23.0271 18.9989 22.8363 18.9198 22.6957 18.7792C22.555 18.6385 22.476 18.4478 22.476 18.2489C22.4764 17.1329 22.117 16.0465 21.4513 15.1509C20.7855 14.2553 19.8488 13.5981 18.78 13.2769L18.246 13.1169V11.4409L18.656 11.2319C19.2638 10.924 19.75 10.4203 20.0363 9.8021C20.3226 9.18388 20.3922 8.48723 20.2339 7.82461C20.0755 7.16199 19.6985 6.57207 19.1636 6.15008C18.6288 5.72809 17.9673 5.49867 17.286 5.49885Z" fill="#5FA2FF"/>
</svg>
