<svg width="30" height="26" viewBox="0 0 30 26" fill="none" xmlns="http://www.w3.org/2000/svg">
<g filter="url(#filter0_d_1210_390)">
<path d="M5 5H25V7H5V5ZM5 12H25V14H5V12ZM6 19H5V21H25V19H6Z" fill="white"/>
<path d="M5 4.5H4.5V5V7V7.5H5H25H25.5V7V5V4.5H25H5ZM5 11.5H4.5V12V14V14.5H5H25H25.5V14V12V11.5H25H5ZM5 18.5H4.5V19V21V21.5H5H25H25.5V21V19V18.5H25H6H5Z" stroke="white"/>
</g>
<defs>
<filter id="filter0_d_1210_390" x="0" y="0" width="30" height="26" filterUnits="userSpaceOnUse" color-interpolation-filters="sRGB">
<feFlood flood-opacity="0" result="BackgroundImageFix"/>
<feColorMatrix in="SourceAlpha" type="matrix" values="0 0 0 0 0 0 0 0 0 0 0 0 0 0 0 0 0 0 127 0" result="hardAlpha"/>
<feOffset/>
<feGaussianBlur stdDeviation="2"/>
<feComposite in2="hardAlpha" operator="out"/>
<feColorMatrix type="matrix" values="0 0 0 0 0 0 0 0 0 0 0 0 0 0 0 0 0 0 0.15 0"/>
<feBlend mode="normal" in2="BackgroundImageFix" result="effect1_dropShadow_1210_390"/>
<feBlend mode="normal" in="SourceGraphic" in2="effect1_dropShadow_1210_390" result="shape"/>
</filter>
</defs>
</svg>
