<svg width="40" height="40" viewBox="0 0 40 40" fill="none" xmlns="http://www.w3.org/2000/svg">
<path d="M6.66666 33.3334C5.74999 33.3334 4.95833 33.014 4.29166 32.3751C3.65277 31.7084 3.33333 30.9167 3.33333 30.0001V10.0001C3.33333 9.08342 3.65277 8.30564 4.29166 7.66675C4.95833 7.00008 5.74999 6.66675 6.66666 6.66675H33.3333C34.25 6.66675 35.0278 7.00008 35.6667 7.66675C36.3333 8.30564 36.6667 9.08342 36.6667 10.0001V30.0001C36.6667 30.9167 36.3333 31.7084 35.6667 32.3751C35.0278 33.014 34.25 33.3334 33.3333 33.3334H6.66666ZM20 21.6667L33.3333 13.3334V10.0001L20 18.3334L6.66666 10.0001V13.3334L20 21.6667Z" fill="#4D4D4D"/>
</svg>
