<svg width="15" height="19" viewBox="0 0 15 19" fill="none" xmlns="http://www.w3.org/2000/svg">
<path fill-rule="evenodd" clip-rule="evenodd" d="M8.67636 10.3087C8.39511 10.0278 8.01386 9.87002 7.61636 9.87002C7.21885 9.87002 6.83761 10.0278 6.55635 10.3087L0.898356 15.9647C0.617093 16.2461 0.459135 16.6277 0.459229 17.0256C0.459322 17.4234 0.617461 17.8049 0.898855 18.0862C1.18025 18.3675 1.56185 18.5254 1.95971 18.5253C2.35757 18.5252 2.73909 18.3671 3.02036 18.0857L7.61636 13.4897L12.2124 18.0857C12.4951 18.3591 12.874 18.5104 13.2673 18.5072C13.6606 18.504 14.0369 18.3464 14.3151 18.0684C14.5933 17.7904 14.7513 17.4143 14.7549 17.021C14.7585 16.6277 14.6075 16.2487 14.3344 15.9657L8.67736 10.3077L8.67636 10.3087Z" fill="#56BEFF"/>
<path fill-rule="evenodd" clip-rule="evenodd" d="M8.67636 1.3087C8.39511 1.0278 8.01386 0.870022 7.61636 0.870022C7.21885 0.870022 6.83761 1.0278 6.55635 1.3087L0.898356 6.9647C0.617093 7.2461 0.459135 7.6277 0.459229 8.02556C0.459322 8.42342 0.617461 8.80494 0.898855 9.0862C1.18025 9.36746 1.56185 9.52542 1.95971 9.52533C2.35757 9.52524 2.73909 9.3671 3.02036 9.0857L7.61636 4.4897L12.2124 9.0857C12.4951 9.35908 12.874 9.51045 13.2673 9.50722C13.6606 9.50399 14.0369 9.34641 14.3151 9.06843C14.5933 8.79045 14.7513 8.4143 14.7549 8.02101C14.7585 7.62771 14.6075 7.24873 14.3344 6.9657L8.67736 1.3077L8.67636 1.3087Z" fill="#56BEFF"/>
</svg>
