<svg width="24" height="22" viewBox="0 0 24 22" fill="none" xmlns="http://www.w3.org/2000/svg">
<path d="M15.6666 11.0834H17.2291V14.0209L19.7708 15.4897L18.9895 16.8438L15.6666 14.9272V11.0834ZM16.7083 9.00008C15.327 9.00008 14.0022 9.54882 13.0254 10.5256C12.0487 11.5023 11.5 12.8271 11.5 14.2084C11.5 15.5898 12.0487 16.9145 13.0254 17.8913C14.0022 18.868 15.327 19.4167 16.7083 19.4167C18.0896 19.4167 19.4144 18.868 20.3911 17.8913C21.3679 16.9145 21.9166 15.5898 21.9166 14.2084C21.9166 12.8271 21.3679 11.5023 20.3911 10.5256C19.4144 9.54882 18.0896 9.00008 16.7083 9.00008ZM16.7083 6.91675C18.6422 6.91675 20.4968 7.68498 21.8643 9.05243C23.2317 10.4199 24 12.2745 24 14.2084C24 16.1423 23.2317 17.9969 21.8643 19.3644C20.4968 20.7319 18.6422 21.5001 16.7083 21.5001C13.802 21.5001 11.2916 19.7917 10.1145 17.3334H0.041626V14.2084C0.041626 11.4376 5.59371 10.0417 8.37496 10.0417C8.99996 10.0417 9.77079 10.1147 10.5833 10.2501C11.2439 9.22641 12.1507 8.38486 13.2208 7.8025C14.2909 7.22013 15.49 6.91559 16.7083 6.91675ZM9.41663 14.2084C9.41663 13.4792 9.52079 12.7709 9.71871 12.1251C9.28121 12.0522 8.82288 12.0209 8.37496 12.0209C5.28121 12.0209 2.02079 13.5417 2.02079 14.2084V15.3542H9.51038C9.44902 14.9754 9.41767 14.5922 9.41663 14.2084ZM8.37496 0.666748C9.48003 0.666748 10.5398 1.10573 11.3212 1.88714C12.1026 2.66854 12.5416 3.72835 12.5416 4.83342C12.5416 5.93848 12.1026 6.99829 11.3212 7.77969C10.5398 8.5611 9.48003 9.00008 8.37496 9.00008C7.26989 9.00008 6.21008 8.5611 5.42868 7.77969C4.64728 6.99829 4.20829 5.93848 4.20829 4.83342C4.20829 3.72835 4.64728 2.66854 5.42868 1.88714C6.21008 1.10573 7.26989 0.666748 8.37496 0.666748ZM8.37496 2.64591C7.7948 2.64591 7.2384 2.87638 6.82816 3.28662C6.41793 3.69685 6.18746 4.25325 6.18746 4.83342C6.18746 5.41358 6.41793 5.96998 6.82816 6.38021C7.2384 6.79045 7.7948 7.02092 8.37496 7.02092C8.95512 7.02092 9.51152 6.79045 9.92176 6.38021C10.332 5.96998 10.5625 5.41358 10.5625 4.83342C10.5625 4.25325 10.332 3.69685 9.92176 3.28662C9.51152 2.87638 8.95512 2.64591 8.37496 2.64591Z" fill="#FDC330"/>
</svg>
