<svg width="16" height="16" viewBox="0 0 16 16" fill="none" xmlns="http://www.w3.org/2000/svg">
<path d="M8 8C6.96875 8 6.08594 7.63281 5.35156 6.89844C4.61719 6.16406 4.25 5.28125 4.25 4.25C4.25 3.21875 4.61719 2.33594 5.35156 1.60156C6.08594 0.867188 6.96875 0.5 8 0.5C9.03125 0.5 9.91406 0.867188 10.6484 1.60156C11.3828 2.33594 11.75 3.21875 11.75 4.25C11.75 5.28125 11.3828 6.16406 10.6484 6.89844C9.91406 7.63281 9.03125 8 8 8ZM0.5 15.5V12.875C0.5 12.3437 0.636719 11.8555 0.910156 11.4102C1.18359 10.9648 1.54688 10.625 2 10.3906C2.96875 9.90625 3.95312 9.54297 4.95312 9.30078C5.95313 9.05859 6.96875 8.9375 8 8.9375C9.03125 8.9375 10.0469 9.05859 11.0469 9.30078C12.0469 9.54297 13.0313 9.90625 14 10.3906C14.4531 10.625 14.8164 10.9648 15.0898 11.4102C15.3633 11.8555 15.5 12.3437 15.5 12.875V15.5H0.5ZM2.375 13.625H13.625V12.875C13.625 12.7031 13.582 12.5469 13.4961 12.4062C13.4102 12.2656 13.2969 12.1563 13.1562 12.0781C12.3125 11.6563 11.4609 11.3398 10.6016 11.1289C9.74219 10.918 8.875 10.8125 8 10.8125C7.125 10.8125 6.25781 10.918 5.39844 11.1289C4.53906 11.3398 3.6875 11.6563 2.84375 12.0781C2.70312 12.1563 2.58984 12.2656 2.50391 12.4062C2.41797 12.5469 2.375 12.7031 2.375 12.875V13.625ZM8 6.125C8.51563 6.125 8.95703 5.94141 9.32422 5.57422C9.69141 5.20703 9.875 4.76563 9.875 4.25C9.875 3.73437 9.69141 3.29297 9.32422 2.92578C8.95703 2.55859 8.51563 2.375 8 2.375C7.48437 2.375 7.04297 2.55859 6.67578 2.92578C6.30859 3.29297 6.125 3.73437 6.125 4.25C6.125 4.76563 6.30859 5.20703 6.67578 5.57422C7.04297 5.94141 7.48437 6.125 8 6.125Z" fill="#5FA2FF"/>
</svg>
